# xmcd
#
# Track frame offsets:
#	150
#	19071
#	37992
#	56753
#	74783
#	95473
#	122061
#	141413
#	162742
#	181428
#	200469
#	220317
#	240155
#	263022
#	281896
#	301734
#
# Disc length: 4283 seconds
#
# Revision: 0
# Processed by: cddbd v1.5.2PL0 Copyright (c) Steve Scherf et al.
# Submitted via: EasyCDDAExtractor 10.1.0.1
#
DISCID=f210b910
DTITLE=조관우 - Blue Snow (Best Album)
DYEAR=2006
DGENRE=Ballad
TTITLE0=떠나지마
TTITLE1=Mrs
TTITLE2=들꽃
TTITLE3=우린 너무 쉽게 헤어졌어요
TTITLE4=실낙원
TTITLE5=또 다시 그리움
TTITLE6=Blue Christmas
TTITLE7=연
TTITLE8=영원
TTITLE9=과거
TTITLE10=사랑했으므로
TTITLE11=길
TTITLE12=그래도
TTITLE13=미로
TTITLE14=내 마음 당신 곁으로
TTITLE15=진정 난 몰랐네
EXTD=YEAR: 2006\n
EXTT0=
EXTT1=
EXTT2=
EXTT3=
EXTT4=
EXTT5=
EXTT6=
EXTT7=
EXTT8=
EXTT9=
EXTT10=
EXTT11=
EXTT12=
EXTT13=
EXTT14=
EXTT15=
PLAYORDER=
